{
	"asset":
	{
		"version": "2.0",
		"generator": "Unreal Engine 5.4.3"
	},
	"scene": 0,
	"accessors": [
		{
			"bufferView": 0,
			"count": 36,
			"type": "SCALAR",
			"componentType": 5121
		},
		{
			"bufferView": 1,
			"count": 24,
			"type": "VEC3",
			"componentType": 5126,
			"min": [ 0, -0.200001061, -6.51682015e-08 ],
			"max": [ 4, 2.28881831e-07, 4 ]
		},
		{
			"bufferView": 2,
			"count": 24,
			"type": "VEC3",
			"componentType": 5126
		},
		{
			"bufferView": 3,
			"count": 24,
			"type": "VEC4",
			"componentType": 5126
		},
		{
			"bufferView": 4,
			"count": 24,
			"type": "VEC2",
			"componentType": 5126
		},
		{
			"bufferView": 5,
			"count": 24,
			"type": "VEC2",
			"componentType": 5126
		},
		{
			"bufferView": 6,
			"count": 144,
			"type": "SCALAR",
			"componentType": 5121
		},
		{
			"bufferView": 7,
			"count": 54,
			"type": "VEC3",
			"componentType": 5126,
			"min": [ -0.5, -0.5, -0.5 ],
			"max": [ 0.5, 0.5, 0.5 ]
		},
		{
			"bufferView": 8,
			"count": 54,
			"type": "VEC3",
			"componentType": 5126
		},
		{
			"bufferView": 9,
			"count": 54,
			"type": "VEC4",
			"componentType": 5126
		},
		{
			"bufferView": 10,
			"count": 54,
			"type": "VEC2",
			"componentType": 5126
		},
		{
			"bufferView": 11,
			"count": 54,
			"type": "VEC2",
			"componentType": 5126
		}
	],
	"buffers": [
		{
			"uri": "Main.bin",
			"byteLength": 4548
		}
	],
	"bufferViews": [
		{
			"buffer": 0,
			"byteLength": 36,
			"target": 34963
		},
		{
			"buffer": 0,
			"byteLength": 288,
			"byteOffset": 36,
			"target": 34962
		},
		{
			"buffer": 0,
			"byteLength": 288,
			"byteOffset": 324,
			"target": 34962
		},
		{
			"buffer": 0,
			"byteLength": 384,
			"byteOffset": 612,
			"target": 34962
		},
		{
			"buffer": 0,
			"byteLength": 192,
			"byteOffset": 996,
			"target": 34962
		},
		{
			"buffer": 0,
			"byteLength": 192,
			"byteOffset": 1188,
			"target": 34962
		},
		{
			"buffer": 0,
			"byteLength": 144,
			"byteOffset": 1380,
			"target": 34963
		},
		{
			"buffer": 0,
			"byteLength": 648,
			"byteOffset": 1524,
			"target": 34962
		},
		{
			"buffer": 0,
			"byteLength": 648,
			"byteOffset": 2172,
			"target": 34962
		},
		{
			"buffer": 0,
			"byteLength": 864,
			"byteOffset": 2820,
			"target": 34962
		},
		{
			"buffer": 0,
			"byteLength": 432,
			"byteOffset": 3684,
			"target": 34962
		},
		{
			"buffer": 0,
			"byteLength": 432,
			"byteOffset": 4116,
			"target": 34962
		}
	],
	"materials": [
		{
			"name": "M_Basic_Floor",
			"pbrMetallicRoughness":
			{
				"baseColorFactor": [ 0.259027004, 0.320381999, 0.383774996, 1 ],
				"metallicFactor": 0.5,
				"roughnessFactor": 0.5
			}
		},
		{
			"name": "BasicShapeMaterial",
			"pbrMetallicRoughness":
			{
				"baseColorFactor": [ 0.899999976, 0.899999976, 0.899999976, 1 ],
				"metallicFactor": 0,
				"roughnessFactor": 0.640699983
			}
		}
	],
	"meshes": [
		{
			"name": "Floor_400x400",
			"primitives": [
				{
					"attributes":
					{
						"POSITION": 1,
						"NORMAL": 2,
						"TANGENT": 3,
						"TEXCOORD_0": 4,
						"TEXCOORD_1": 5
					},
					"indices": 0,
					"material": 0
				}
			]
		},
		{
			"name": "Cube",
			"primitives": [
				{
					"attributes":
					{
						"POSITION": 7,
						"NORMAL": 8,
						"TANGENT": 9,
						"TEXCOORD_0": 10,
						"TEXCOORD_1": 11
					},
					"indices": 6,
					"material": 1
				}
			]
		}
	],
	"nodes": [
		{
			"name": "Cube",
			"translation": [ -9.81358051, 3.5, 13.5314989 ],
			"rotation": [ -9.92701227e-16, 0.258819073, -1.7882117e-15, 0.965925932 ],
			"scale": [ 6.69499969, -0.0274999999, 6.10750008 ],
			"mesh": 0
		},
		{
			"name": "Cube2",
			"translation": [ 3.87416506, 3.89999986, 18.3630066 ],
			"rotation": [ 3.29906336e-16, 0.866025388, 1.9088474e-15, 0.5 ],
			"scale": [ 1, 0.75, 6.25 ],
			"mesh": 1
		},
		{
			"name": "Cube3",
			"translation": [ 1.27921188, 3.89999986, 14.386466 ],
			"rotation": [ 1.12768419e-15, 0.866025388, 6.51068804e-16, 0.5 ],
			"scale": [ 1, 0.75, 6.25 ],
			"mesh": 1
		},
		{
			"name": "Cube4",
			"translation": [ 0.180242151, 3.89999986, 17.7649441 ],
			"rotation": [ -1.28387828e-16, 0.258819073, -4.79149862e-16, 0.965925932 ],
			"scale": [ 1, 0.75, 5.75 ],
			"mesh": 1
		},
		{
			"name": "Cube5",
			"translation": [ 1.91229284, 3.89999986, 16.7649441 ],
			"rotation": [ 1.12768419e-15, 0.866025388, 6.51068804e-16, 0.5 ],
			"scale": [ 1, 0.75, 3 ],
			"mesh": 1
		}
	],
	"scenes": [
		{
			"name": "Main",
			"nodes": [ 0, 1, 2, 3, 4 ]
		}
	]
}